<svg width="10" height="10" viewBox="0 0 10 10" fill="none" xmlns="http://www.w3.org/2000/svg">
<path d="M6.8219 4.84222C7.4755 4.84222 7.91668 5.29718 7.91668 5.9712C7.91668 6.57782 7.41014 7.08334 6.72387 7.08334C5.97223 7.08334 5.41668 6.47672 5.41668 5.54994C5.41668 3.44363 6.95262 2.6011 7.91668 2.5L7.91668 3.42678C7.26308 3.54473 6.52779 4.2019 6.49511 4.92647C6.52779 4.90962 6.65851 4.84222 6.8219 4.84222Z" fill="#79819A"/>
<path d="M3.48857 4.84222C4.14217 4.84222 4.58334 5.29718 4.58334 5.9712C4.58334 6.57782 4.07681 7.08334 3.39053 7.08334C2.6389 7.08334 2.08334 6.47672 2.08334 5.54994C2.08334 3.44363 3.61929 2.6011 4.58334 2.5V3.42678C3.92975 3.54473 3.19445 4.2019 3.16177 4.92647C3.19445 4.90962 3.32517 4.84222 3.48857 4.84222Z" fill="#79819A"/>
</svg>
