<svg width="16" height="12" viewBox="0 0 16 12" fill="none" xmlns="http://www.w3.org/2000/svg">
<g clip-path="url(#clip0_305_112)">
<g clip-path="url(#clip1_305_112)">
<path d="M15.5555 -1H0.444434C-0.537405 -1 -1.33334 -0.164265 -1.33334 0.866667V11.1333C-1.33334 12.1643 -0.537405 13 0.444434 13H15.5555C16.5374 13 17.3333 12.1643 17.3333 11.1333V0.866667C17.3333 -0.164265 16.5374 -1 15.5555 -1Z" fill="#22438B"/>
<path fill-rule="evenodd" clip-rule="evenodd" d="M1.33333 -0.0666656L-0.46756 -0.042399L-0.444449 1.8L14.6507 12.0928L16.4613 12.0583L16.4276 10.2271L1.33333 -0.0666656Z" fill="white"/>
<path fill-rule="evenodd" clip-rule="evenodd" d="M0.444431 -0.0666656L-0.444458 0.866668L15.5555 12.0667L16.4444 11.1333L0.444431 -0.0666656Z" fill="#C7152A"/>
<path fill-rule="evenodd" clip-rule="evenodd" d="M14.6667 -0.0666656H16.4444V1.8C16.4444 1.8 5.99999 8.70294 1.34932 12.0928C1.29332 12.1339 -0.426675 12.0956 -0.426675 12.0956L-0.564453 10.3213L14.6667 -0.0666656Z" fill="white"/>
<path fill-rule="evenodd" clip-rule="evenodd" d="M15.5938 -0.092804L16.4444 0.866663L0.444431 12.0667L-0.444458 11.1333L15.5938 -0.092804Z" fill="#C7152A"/>
<path fill-rule="evenodd" clip-rule="evenodd" d="M5.77776 -0.0666656H10.2222V3.66667H16.4444V8.33333H10.2222V12.0667H5.77776V8.33333H-0.444458V3.66667H5.77776V-0.0666656Z" fill="white"/>
<path fill-rule="evenodd" clip-rule="evenodd" d="M6.66665 -0.0666656H9.33332V4.6H16.4444V7.4H9.33332V12.0667H6.66665V7.4H-0.444458V4.6H6.66665V-0.0666656Z" fill="#C7152A"/>
<path d="M15.5556 -0.53334H0.444448C-0.291932 -0.53334 -0.888885 0.0934609 -0.888885 0.86666V11.1333C-0.888885 11.9065 -0.291932 12.5333 0.444448 12.5333H15.5556C16.2919 12.5333 16.8889 11.9065 16.8889 11.1333V0.86666C16.8889 0.0934609 16.2919 -0.53334 15.5556 -0.53334Z" stroke="black" stroke-opacity="0.1"/>
</g>
</g>
<defs>
<clipPath id="clip0_305_112">
<rect width="16" height="12" rx="2" fill="white"/>
</clipPath>
<clipPath id="clip1_305_112">
<rect width="18.6667" height="14" fill="white" transform="translate(-1.33334 -1)"/>
</clipPath>
</defs>
</svg>
