<svg width="10" height="10" viewBox="0 0 10 10" fill="none" xmlns="http://www.w3.org/2000/svg">
<path d="M3.52709 8.55625C2.68452 8.55625 1.92492 8.04871 1.60243 7.2703C1.27994 6.49189 1.45806 5.59587 2.05376 4.99999L2.93793 4.11583L3.52709 4.70499L2.64334 5.58874C2.32753 5.90455 2.2042 6.36485 2.31979 6.79625C2.43538 7.22765 2.77235 7.56462 3.20375 7.68021C3.63515 7.79581 4.09545 7.67247 4.41126 7.35666L5.29501 6.47291L5.88418 7.06249L5.00043 7.94624C4.61046 8.33813 4.07995 8.55778 3.52709 8.55625ZM3.82168 6.76749L3.23251 6.17833L6.17876 3.23208L6.76793 3.82124L3.82209 6.76708L3.82168 6.76749ZM7.06293 5.88374L6.47334 5.29458L7.35709 4.41083C7.6772 4.09596 7.80384 3.6336 7.68886 3.19957C7.57388 2.76553 7.23494 2.42651 6.80093 2.31143C6.36692 2.19634 5.90453 2.32288 5.58959 2.64291L4.70543 3.52666L4.11626 2.93749L5.00043 2.05333C5.81504 1.24581 7.12917 1.24869 7.94024 2.05976C8.75131 2.87084 8.75419 4.18496 7.94668 4.99958L7.06293 5.88333V5.88374Z" fill="#79819A"/>
</svg>
