<svg width="10" height="11" viewBox="0 0 10 11" fill="none" xmlns="http://www.w3.org/2000/svg">
<path d="M3.33373 5.5002C3.33373 4.57972 4.07972 3.83333 5.0002 3.83333C5.92068 3.83333 6.66707 4.57972 6.66707 5.5002C6.66707 6.42068 5.92068 7.16707 5.0002 7.16707C4.07972 7.16707 3.33373 6.42068 3.33373 5.5002ZM2.43266 5.5002C2.43266 6.91826 3.58214 8.06774 5.0002 8.06774C6.41826 8.06774 7.56774 6.91826 7.56774 5.5002C7.56774 4.08214 6.41826 2.93266 5.0002 2.93266C3.58214 2.93266 2.4327 4.08206 2.4327 5.5002H2.43266ZM7.0694 2.83085C7.06936 2.94953 7.1045 3.06555 7.17039 3.16425C7.23628 3.26295 7.32997 3.33989 7.43959 3.38535C7.54921 3.43081 7.66985 3.44274 7.78625 3.41964C7.90265 3.39653 8.00959 3.33943 8.09354 3.25554C8.17749 3.17166 8.23468 3.06477 8.25788 2.94839C8.28107 2.832 8.26924 2.71135 8.22387 2.6017C8.1785 2.49204 8.10163 2.3983 8.00298 2.33233C7.90434 2.26635 7.78834 2.23112 7.66967 2.23107H7.66943C7.51035 2.23114 7.35782 2.29435 7.24531 2.40681C7.13281 2.51927 7.06954 2.67178 7.0694 2.83085ZM2.98012 9.57028C2.49262 9.54808 2.22765 9.46688 2.05156 9.39828C1.81811 9.30739 1.65155 9.19915 1.47642 9.02426C1.30129 8.84938 1.19289 8.68297 1.1024 8.44952C1.03376 8.27351 0.952558 8.00846 0.930397 7.52096C0.906156 6.9939 0.901316 6.83557 0.901316 5.50028C0.901316 4.16499 0.906556 4.0071 0.930397 3.4796C0.952598 2.9921 1.0344 2.72757 1.1024 2.55104C1.19329 2.31759 1.30153 2.15103 1.47642 1.9759C1.65131 1.80077 1.81771 1.69237 2.05156 1.60188C2.22757 1.53324 2.49262 1.45204 2.98012 1.42988C3.50718 1.40564 3.66551 1.4008 5.0002 1.4008C6.33489 1.4008 6.49338 1.40596 7.02088 1.42996C7.50838 1.45216 7.77291 1.53396 7.94944 1.60196C8.18289 1.69245 8.34945 1.80109 8.52458 1.97598C8.69971 2.15087 8.80771 2.31767 8.8986 2.55112C8.96724 2.72713 9.04844 2.99218 9.0706 3.47968C9.09484 4.00718 9.09968 4.16507 9.09968 5.50036C9.09968 6.83565 9.09484 6.99354 9.0706 7.52104C9.0484 8.00854 8.9668 8.27351 8.8986 8.4496C8.80771 8.68305 8.69947 8.84962 8.52458 9.02434C8.34969 9.19907 8.18289 9.30747 7.94944 9.39836C7.77343 9.467 7.50838 9.5482 7.02088 9.57036C6.49382 9.59461 6.33549 9.59945 5.0002 9.59945C3.66491 9.59945 3.50702 9.59461 2.98012 9.57036V9.57028ZM2.93872 0.530281C2.40642 0.554522 2.04268 0.638926 1.72503 0.762531C1.39626 0.890176 1.11756 1.06142 0.839274 1.33927C0.560982 1.61713 0.390176 1.89586 0.262531 2.22503C0.138926 2.54288 0.0545222 2.90642 0.0302812 3.43872C0.00564026 3.97186 0 4.14231 0 5.5002C0 6.8581 0.00564026 7.02854 0.0302812 7.56168C0.0545222 8.09403 0.138926 8.45752 0.262531 8.77537C0.390176 9.10415 0.561022 9.3834 0.839274 9.66113C1.11752 9.93886 1.39586 10.1099 1.72503 10.2379C2.04328 10.3615 2.40642 10.4459 2.93872 10.4701C3.47214 10.4944 3.64231 10.5004 5.0002 10.5004C6.35809 10.5004 6.52854 10.4948 7.06168 10.4701C7.59402 10.4459 7.95752 10.3615 8.27537 10.2379C8.60415 10.1099 8.88284 9.93898 9.16113 9.66113C9.43942 9.38328 9.60987 9.10415 9.73787 8.77537C9.86147 8.45752 9.94628 8.09399 9.97012 7.56168C9.99436 7.02814 10 6.8581 10 5.5002C10 4.14231 9.99436 3.97186 9.97012 3.43872C9.94588 2.90638 9.86147 2.54268 9.73787 2.22503C9.60987 1.89626 9.43898 1.61757 9.16113 1.33927C8.88328 1.06098 8.60414 0.890176 8.27577 0.762531C7.95752 0.638926 7.59398 0.554122 7.06208 0.530281C6.52886 0.50592 6.3585 0.5 5.0008 0.5C3.64311 0.5 3.47234 0.50564 2.93892 0.530281" fill="white"/>
</svg>
