<svg width="10" height="10" viewBox="0 0 10 10" fill="none" xmlns="http://www.w3.org/2000/svg">
<path d="M5.00001 8.75C4.47373 8.3011 3.98592 7.80896 3.54168 7.27875C2.87501 6.4825 2.08334 5.29666 2.08334 4.16666C2.08275 2.98648 2.79345 1.92224 3.88379 1.47058C4.97413 1.01892 6.22921 1.26885 7.06334 2.10375C7.61187 2.64983 7.91914 3.39266 7.91669 4.16666C7.91669 5.29666 7.12501 6.4825 6.45834 7.27875C6.0141 7.80896 5.52629 8.3011 5.00001 8.75ZM5.00001 2.91666C4.55343 2.91666 4.14077 3.15491 3.91748 3.54166C3.69419 3.92842 3.69419 4.40491 3.91748 4.79167C4.14077 5.17842 4.55343 5.41667 5.00001 5.41667C5.69037 5.41667 6.25001 4.85702 6.25001 4.16666C6.25001 3.47631 5.69037 2.91666 5.00001 2.91666Z" fill="#79819A"/>
</svg>
