<svg width="10" height="10" viewBox="0 0 10 10" fill="none" xmlns="http://www.w3.org/2000/svg">
<path d="M7.91561 8.33332C4.36077 8.33837 1.66286 5.60812 1.66666 2.08438C1.66666 1.85426 1.85321 1.66666 2.08333 1.66666H3.18306C3.38955 1.66666 3.56496 1.81838 3.59528 2.02263C3.66795 2.51216 3.81048 2.98873 4.01853 3.43779L4.06134 3.53021C4.12088 3.65871 4.08052 3.81139 3.96527 3.89369C3.6247 4.13691 3.49454 4.62648 3.75986 5.00848C4.09281 5.48785 4.51251 5.90746 4.99177 6.24025C5.37375 6.5055 5.86324 6.37536 6.10645 6.03485C6.18881 5.91954 6.34158 5.87916 6.47015 5.93872L6.56215 5.98134C7.01123 6.18937 7.48784 6.3319 7.97742 6.40456C8.18167 6.43487 8.33332 6.61028 8.33332 6.81677V7.91666C8.33332 8.14677 8.14632 8.33332 7.9162 8.33332L7.91561 8.33332Z" fill="#79819A"/>
</svg>
