
<!DOCTYPE svg PUBLIC "-//W3C//DTD SVG 1.1//EN" "http://www.w3.org/Graphics/SVG/1.1/DTD/svg11.dtd">
<svg xmlns="http://www.w3.org/2000/svg" version="1.1" viewBox="0.00 0.00 331.00 108.00">
<path fill="#4675FF" d="
  M 25.75 47.29
  L 25.75 101.00
  Q 25.75 101.50 25.25 101.50
  L 9.04 101.50
  Q 8.74 101.50 8.74 101.19
  Q 8.79 59.35 8.72 13.10
  C 8.71 7.01 16.05 3.43 21.00 6.84
  Q 22.70 8.01 23.87 10.00
  Q 43.76 43.97 62.82 76.27
  A 0.29 0.28 -44.7 0 0 63.31 76.27
  Q 82.47 43.68 102.54 9.48
  C 104.67 5.85 109.18 4.53 112.95 6.18
  C 118.26 8.52 117.74 12.27 117.74 18.10
  Q 117.77 62.02 117.73 100.97
  Q 117.73 101.50 117.20 101.50
  L 101.25 101.50
  Q 100.75 101.50 100.75 101.00
  L 100.75 46.75
  Q 100.75 45.60 100.17 46.59
  Q 85.08 72.33 70.14 97.70
  Q 68.78 100.00 65.80 100.98
  C 61.16 102.49 57.42 100.30 55.05 96.24
  Q 40.48 71.28 26.23 47.16
  Q 25.75 46.35 25.75 47.29
  Z"
/>
<path fill="#4675FF" d="
  M 184.75 23.10
  L 184.75 101.16
  A 0.35 0.35 0.0 0 1 184.40 101.51
  L 167.85 101.49
  A 0.35 0.35 0.0 0 1 167.50 101.14
  L 167.50 23.10
  A 0.35 0.35 0.0 0 0 167.15 22.75
  L 130.60 22.75
  A 0.35 0.35 0.0 0 1 130.25 22.40
  L 130.25 5.85
  A 0.35 0.35 0.0 0 1 130.60 5.50
  L 222.65 5.50
  A 0.35 0.35 0.0 0 1 223.00 5.85
  L 223.00 22.40
  A 0.35 0.35 0.0 0 1 222.65 22.75
  L 185.10 22.75
  A 0.35 0.35 0.0 0 0 184.75 23.10
  Z"
/>
<path fill="#4675FF" d="
  M 235.28 14.96
  A 9.61 9.61 0.0 0 1 244.90 5.36
  L 290.41 5.44
  A 39.00 38.27 0.1 0 1 329.35 43.78
  L 329.31 63.42
  A 39.00 38.27 0.1 0 1 290.25 101.62
  L 244.74 101.54
  A 9.61 9.61 0.0 0 1 235.14 91.92
  L 235.28 14.96
  Z
  M 306.79 49.93
  Q 309.07 47.52 309.02 44.75
  Q 308.93 39.17 309.02 33.81
  Q 309.03 33.25 308.48 33.25
  L 256.03 33.25
  Q 255.47 33.25 255.47 33.81
  Q 255.52 39.82 255.50 45.40
  Q 255.49 47.81 257.66 49.76
  A 1.04 1.04 0.0 0 1 258.00 50.53
  L 258.00 73.50
  A 0.26 0.25 -90.0 0 0 258.25 73.76
  L 306.00 73.75
  Q 306.50 73.75 306.50 73.25
  L 306.50 50.66
  Q 306.50 50.24 306.79 49.93
  Z"
/>
<path fill="#4675FF" d="
  M 295.76 47.39
  C 296.91 49.73 300.25 52.47 302.89 51.51
  Q 304.25 51.02 304.25 52.46
  L 304.25 60.25
  Q 304.25 61.25 303.25 61.25
  L 260.50 61.25
  A 0.25 0.25 0.0 0 1 260.25 61.00
  L 260.26 51.57
  Q 260.26 51.34 260.48 51.39
  Q 265.79 52.52 268.63 47.54
  Q 269.01 46.87 269.36 47.55
  C 272.27 53.28 279.02 52.88 281.99 47.42
  A 0.38 0.37 49.7 0 1 282.67 47.48
  C 283.35 49.38 285.06 50.89 286.97 51.37
  Q 292.46 52.74 295.25 47.39
  Q 295.51 46.88 295.76 47.39
  Z"
/>
<rect fill="#4675FF" x="260.25" y="63.25" width="44.00" height="8.50" rx="0.33"/>
</svg>
